<svg xmlns="http://www.w3.org/2000/svg" width="1600" height="1000" viewBox="0 0 1600 1000">
<rect width="1600" height="1000" fill="#240B15"/>
<style>text{font-family:Inter,Arial,sans-serif}.muted{opacity:.72}</style>
<rect x="0" y="0" width="1600" height="18" rx="0" fill="#F00037" stroke="none" stroke-width="0"/>
<rect x="0" y="18" width="1600" height="6" rx="0" fill="#FFCD67" stroke="none" stroke-width="0"/>
<rect x="80" y="82" width="138" height="10" rx="5" fill="#F00037" stroke="none" stroke-width="0"/>
<text x="80" y="150" font-size="64" font-weight="800" fill="#FFFFFF" text-anchor="start">Approval Stage</text>
<text x="80" y="198" font-size="26" font-weight="450" fill="#FFFFFF" text-anchor="start">A centered approval workflow stage with maroon backdrop, red call-to-action, and gold expiry timer.</text>
<rect x="80" y="250" width="1440" height="92" rx="34" fill="#35111f" stroke="#E4D7DB" stroke-width="2"/>
<rect x="110" y="274" width="210" height="44" rx="22" fill="#4a1828" stroke="none" stroke-width="0"/><text x="215" y="303" font-size="18" font-weight="700" fill="#FFFFFF" text-anchor="middle">Queue</text>
<rect x="380" y="274" width="210" height="44" rx="22" fill="#4a1828" stroke="none" stroke-width="0"/><text x="485" y="303" font-size="18" font-weight="700" fill="#FFFFFF" text-anchor="middle">Evidence</text>
<rect x="650" y="274" width="210" height="44" rx="22" fill="#F00037" stroke="none" stroke-width="0"/><text x="755" y="303" font-size="18" font-weight="700" fill="#FFFFFF" text-anchor="middle">Controls</text>
<rect x="920" y="274" width="210" height="44" rx="22" fill="#4a1828" stroke="none" stroke-width="0"/><text x="1025" y="303" font-size="18" font-weight="700" fill="#FFFFFF" text-anchor="middle">Costs</text>
<rect x="1190" y="274" width="210" height="44" rx="22" fill="#4a1828" stroke="none" stroke-width="0"/><text x="1295" y="303" font-size="18" font-weight="700" fill="#FFFFFF" text-anchor="middle">Runbooks</text>
<rect x="80" y="380" width="320" height="230" rx="28" fill="#35111f" stroke="#E4D7DB" stroke-width="2"/>
<rect x="80" y="380" width="10" height="230" rx="5" fill="#F00037" stroke="none" stroke-width="0"/>
<text x="114" y="435" font-size="30" font-weight="750" fill="#FFFFFF" text-anchor="start">Priority decision</text>
<text x="114" y="476" font-size="21" font-weight="450" fill="#FFFFFF" text-anchor="start">Human approval required</text>
<rect x="114" y="525" width="210" height="44" rx="22" fill="#F9EAED" stroke="none" stroke-width="0"/><text x="219" y="554" font-size="18" font-weight="700" fill="#240B15" text-anchor="middle">Review plan</text>
<rect x="440" y="450" width="320" height="230" rx="28" fill="#35111f" stroke="#E4D7DB" stroke-width="2"/>
<rect x="440" y="450" width="10" height="230" rx="5" fill="#FFCD67" stroke="none" stroke-width="0"/>
<text x="474" y="505" font-size="30" font-weight="750" fill="#FFFFFF" text-anchor="start">Source freshness</text>
<text x="474" y="546" font-size="21" font-weight="450" fill="#FFFFFF" text-anchor="start">3 sources updated today</text>
<rect x="474" y="595" width="210" height="44" rx="22" fill="#FFF8E1" stroke="none" stroke-width="0"/><text x="579" y="624" font-size="18" font-weight="700" fill="#240B15" text-anchor="middle">Trace evidence</text>
<rect x="800" y="380" width="320" height="230" rx="28" fill="#35111f" stroke="#E4D7DB" stroke-width="2"/>
<rect x="800" y="380" width="10" height="230" rx="5" fill="#00AAAD" stroke="none" stroke-width="0"/>
<text x="834" y="435" font-size="30" font-weight="750" fill="#FFFFFF" text-anchor="start">Approval window</text>
<text x="834" y="476" font-size="21" font-weight="450" fill="#FFFFFF" text-anchor="start">12:48 remaining</text>
<rect x="834" y="525" width="210" height="44" rx="22" fill="#FFCD67" stroke="none" stroke-width="0"/><text x="939" y="554" font-size="18" font-weight="700" fill="#240B15" text-anchor="middle">Expires soon</text>
<rect x="80" y="690" width="1440" height="210" rx="34" fill="#401626" stroke="#E4D7DB" stroke-width="2"/>
<rect x="130" y="730" width="110" height="120" rx="18" fill="#F00037" stroke="none" stroke-width="0"/>
<rect x="320" y="775" width="110" height="75" rx="18" fill="#8B001F" stroke="none" stroke-width="0"/>
<rect x="510" y="690" width="110" height="160" rx="18" fill="#FFCD67" stroke="none" stroke-width="0"/>
<rect x="700" y="755" width="110" height="95" rx="18" fill="#00AAAD" stroke="none" stroke-width="0"/>
<rect x="890" y="715" width="110" height="135" rx="18" fill="#72BF44" stroke="none" stroke-width="0"/>
<rect x="1080" y="790" width="110" height="60" rx="18" fill="#B79AA3" stroke="none" stroke-width="0"/>
<rect x="1270" y="700" width="110" height="150" rx="18" fill="#F00037" stroke="none" stroke-width="0"/>
<text x="112" y="950" font-size="24" font-weight="500" fill="#FFFFFF" text-anchor="start">OTPP palette applied: primary red, deep maroon, warm tints, gold/teal/green accents, rose-grey neutrals.</text>
</svg>