<svg xmlns="http://www.w3.org/2000/svg" width="1600" height="1000" viewBox="0 0 1600 1000"><style>text{font-family:Inter,-apple-system,BlinkMacSystemFont,"Segoe UI",Arial,sans-serif;font-variant-numeric:tabular-nums}</style><rect x="0" y="0" width="1600" height="1000" rx="0" fill="#F4F5F5" stroke="none" stroke-width="1"/><rect x="0" y="0" width="228" height="1000" rx="0" fill="#111315" stroke="none" stroke-width="1"/><rect x="228" y="0" width="1372" height="64" rx="0" fill="#FFFFFF" stroke="#E8EAEB" stroke-width="1"/><text x="28" y="37" font-size="14" font-weight="700" fill="#FFFFFF" text-anchor="start" letter-spacing="1.1">DBX / PLATFORM</text><circle cx="198" cy="32" r="4" fill="#778087" stroke="none" stroke-width="1"/><text x="30" y="104" font-size="13" font-weight="450" fill="#AEB3B7" text-anchor="start" letter-spacing="0">Overview</text><text x="30" y="152" font-size="13" font-weight="450" fill="#AEB3B7" text-anchor="start" letter-spacing="0">Evidence</text><text x="30" y="200" font-size="13" font-weight="450" fill="#AEB3B7" text-anchor="start" letter-spacing="0">Decisions</text><rect x="12" y="222" width="204" height="38" rx="4" fill="#2D3033" stroke="none" stroke-width="1"/><rect x="12" y="222" width="3" height="38" rx="0" fill="#FFFFFF" stroke="none" stroke-width="1"/><text x="30" y="248" font-size="13" font-weight="650" fill="#FFFFFF" text-anchor="start" letter-spacing="0">Controls</text><text x="30" y="296" font-size="13" font-weight="450" fill="#AEB3B7" text-anchor="start" letter-spacing="0">Costs</text><text x="30" y="344" font-size="13" font-weight="450" fill="#AEB3B7" text-anchor="start" letter-spacing="0">Audit</text><line x1="24" y1="430" x2="204" y2="430" stroke="#34383B" stroke-width="1"/><text x="28" y="464" font-size="10" font-weight="650" fill="#777E83" text-anchor="start" letter-spacing="1">WORKSPACE</text><text x="28" y="490" font-size="13" font-weight="500" fill="#D5D8DA" text-anchor="start" letter-spacing="0">Production</text><circle cx="28" cy="522" r="4" fill="#758A79" stroke="none" stroke-width="1"/><text x="42" y="527" font-size="12" font-weight="450" fill="#AEB3B7" text-anchor="start" letter-spacing="0">Sources current</text><text x="28" y="930" font-size="9" font-weight="650" fill="#6F767B" text-anchor="start" letter-spacing="0.8">READ-ONLY CONTROL PLANE</text><text x="28" y="954" font-size="11" font-weight="400" fill="#8E9498" text-anchor="start" letter-spacing="0">Updated 08:42:16 EDT</text><text x="258" y="39" font-size="11" font-weight="700" fill="#6B7075" text-anchor="start" letter-spacing="1">MISSION CONTROL</text><text x="1564" y="39" font-size="12" font-weight="500" fill="#6B7075" text-anchor="end" letter-spacing="0">Search  ⌘K</text><text x="272" y="112" font-size="11" font-weight="700" fill="#6B7075" text-anchor="start" letter-spacing="1.2">GOVERNANCE VIEW</text><text x="272" y="156" font-size="32" font-weight="620" fill="#111315" text-anchor="start" letter-spacing="0">Control portfolio</text><text x="272" y="185" font-size="14" font-weight="400" fill="#6B7075" text-anchor="start" letter-spacing="0">Coverage, exceptions, expiry, and evidence confidence across the workspace.</text><rect x="272" y="214" width="238" height="104" rx="5" fill="#FFFFFF" stroke="#D9DCDE" stroke-width="1"/><text x="290" y="240" font-size="10" font-weight="650" fill="#6B7075" text-anchor="start" letter-spacing="0.8">RESOURCES ASSESSED</text><text x="290" y="280" font-size="28" font-weight="620" fill="#111315" text-anchor="start" letter-spacing="0">186</text><text x="492" y="280" font-size="12" font-weight="500" fill="#6B7075" text-anchor="end" letter-spacing="0">all domains</text><rect x="526" y="214" width="238" height="104" rx="5" fill="#FFFFFF" stroke="#D9DCDE" stroke-width="1"/><text x="544" y="240" font-size="10" font-weight="650" fill="#6B7075" text-anchor="start" letter-spacing="0.8">POLICY COVERAGE</text><text x="544" y="280" font-size="28" font-weight="620" fill="#111315" text-anchor="start" letter-spacing="0">97.4%</text><text x="746" y="280" font-size="12" font-weight="500" fill="#6B7075" text-anchor="end" letter-spacing="0">+0.6%</text><rect x="780" y="214" width="238" height="104" rx="5" fill="#FFFFFF" stroke="#D9DCDE" stroke-width="1"/><text x="798" y="240" font-size="10" font-weight="650" fill="#6B7075" text-anchor="start" letter-spacing="0.8">EXCEPTIONS</text><text x="798" y="280" font-size="28" font-weight="620" fill="#111315" text-anchor="start" letter-spacing="0">04</text><text x="1000" y="280" font-size="12" font-weight="500" fill="#6B7075" text-anchor="end" letter-spacing="0">2 expiring</text><rect x="1034" y="214" width="238" height="104" rx="5" fill="#FFFFFF" stroke="#D9DCDE" stroke-width="1"/><text x="1052" y="240" font-size="10" font-weight="650" fill="#6B7075" text-anchor="start" letter-spacing="0.8">OPEN DECISIONS</text><text x="1052" y="280" font-size="28" font-weight="620" fill="#111315" text-anchor="start" letter-spacing="0">03</text><text x="1254" y="280" font-size="12" font-weight="500" fill="#6B7075" text-anchor="end" letter-spacing="0">1 urgent</text><rect x="272" y="340" width="840" height="548" rx="6" fill="#FFFFFF" stroke="#D9DCDE" stroke-width="1"/><text x="296" y="376" font-size="11" font-weight="700" fill="#6B7075" text-anchor="start" letter-spacing="0.9">CONTROL COVERAGE BY DOMAIN</text><text x="296" y="426" font-size="13" font-weight="550" fill="#25282B" text-anchor="start" letter-spacing="0">Compute</text><rect x="430" y="409" width="600" height="20" rx="2" fill="#E8EAEB" stroke="none" stroke-width="1"/><rect x="430" y="409" width="582" height="20" rx="2" fill="#313538" stroke="none" stroke-width="1"/><text x="1066" y="426" font-size="12" font-weight="650" fill="#25282B" text-anchor="end" letter-spacing="0">97%</text><text x="296" y="492" font-size="13" font-weight="550" fill="#25282B" text-anchor="start" letter-spacing="0">Identity</text><rect x="430" y="475" width="600" height="20" rx="2" fill="#E8EAEB" stroke="none" stroke-width="1"/><rect x="430" y="475" width="600" height="20" rx="2" fill="#313538" stroke="none" stroke-width="1"/><text x="1066" y="492" font-size="12" font-weight="650" fill="#25282B" text-anchor="end" letter-spacing="0">100%</text><text x="296" y="558" font-size="13" font-weight="550" fill="#25282B" text-anchor="start" letter-spacing="0">Storage</text><rect x="430" y="541" width="600" height="20" rx="2" fill="#E8EAEB" stroke="none" stroke-width="1"/><rect x="430" y="541" width="564" height="20" rx="2" fill="#6F7376" stroke="none" stroke-width="1"/><text x="1066" y="558" font-size="12" font-weight="650" fill="#25282B" text-anchor="end" letter-spacing="0">94%</text><text x="296" y="624" font-size="13" font-weight="550" fill="#25282B" text-anchor="start" letter-spacing="0">Jobs</text><rect x="430" y="607" width="600" height="20" rx="2" fill="#E8EAEB" stroke="none" stroke-width="1"/><rect x="430" y="607" width="594" height="20" rx="2" fill="#313538" stroke="none" stroke-width="1"/><text x="1066" y="624" font-size="12" font-weight="650" fill="#25282B" text-anchor="end" letter-spacing="0">99%</text><text x="296" y="690" font-size="13" font-weight="550" fill="#25282B" text-anchor="start" letter-spacing="0">Models</text><rect x="430" y="673" width="600" height="20" rx="2" fill="#E8EAEB" stroke="none" stroke-width="1"/><rect x="430" y="673" width="552" height="20" rx="2" fill="#6F7376" stroke="none" stroke-width="1"/><text x="1066" y="690" font-size="12" font-weight="650" fill="#25282B" text-anchor="end" letter-spacing="0">92%</text><text x="296" y="756" font-size="13" font-weight="550" fill="#25282B" text-anchor="start" letter-spacing="0">Networking</text><rect x="430" y="739" width="600" height="20" rx="2" fill="#E8EAEB" stroke="none" stroke-width="1"/><rect x="430" y="739" width="576" height="20" rx="2" fill="#313538" stroke="none" stroke-width="1"/><text x="1066" y="756" font-size="12" font-weight="650" fill="#25282B" text-anchor="end" letter-spacing="0">96%</text><text x="296" y="836" font-size="12" font-weight="400" fill="#6B7075" text-anchor="start" letter-spacing="0">Coverage is evidence-backed; unknown scope is not counted as compliant.</text><rect x="1132" y="214" width="432" height="674" rx="6" fill="#FFFFFF" stroke="#D9DCDE" stroke-width="1"/><text x="1158" y="250" font-size="11" font-weight="700" fill="#6B7075" text-anchor="start" letter-spacing="0.9">EXCEPTION REGISTER</text><text x="1158" y="304" font-size="12" font-weight="700" fill="#111315" text-anchor="start" letter-spacing="0">POL-017</text><rect x="1260" y="285" width="66" height="28" rx="3" fill="#F8EDEE" stroke="#F8EDEE" stroke-width="1"/><circle cx="1272" cy="299" r="3" fill="#B4232C" stroke="none" stroke-width="1"/><text x="1282" y="304" font-size="11" font-weight="650" fill="#B4232C" text-anchor="start" letter-spacing="0.5">HIGH</text><text x="1158" y="339" font-size="14" font-weight="500" fill="#25282B" text-anchor="start" letter-spacing="0">2 clusters</text><text x="1538" y="339" font-size="12" font-weight="500" fill="#6B7075" text-anchor="end" letter-spacing="0">09 days</text><line x1="1158" y1="370" x2="1538" y2="370" stroke="#D9DCDE" stroke-width="1"/><text x="1158" y="430" font-size="12" font-weight="700" fill="#111315" text-anchor="start" letter-spacing="0">POL-031</text><rect x="1260" y="411" width="69.2" height="28" rx="3" fill="#F7F1E5" stroke="#F7F1E5" stroke-width="1"/><circle cx="1272" cy="425" r="3" fill="#8A5A00" stroke="none" stroke-width="1"/><text x="1282" y="430" font-size="11" font-weight="650" fill="#8A5A00" text-anchor="start" letter-spacing="0.5">REVIEW</text><text x="1158" y="465" font-size="14" font-weight="500" fill="#25282B" text-anchor="start" letter-spacing="0">1 model</text><text x="1538" y="465" font-size="12" font-weight="500" fill="#6B7075" text-anchor="end" letter-spacing="0">21 days</text><line x1="1158" y1="496" x2="1538" y2="496" stroke="#D9DCDE" stroke-width="1"/><text x="1158" y="556" font-size="12" font-weight="700" fill="#111315" text-anchor="start" letter-spacing="0">POL-044</text><rect x="1260" y="537" width="69.2" height="28" rx="3" fill="#FAFAFA" stroke="#D9DCDE" stroke-width="1"/><circle cx="1272" cy="551" r="3" fill="#25282B" stroke="none" stroke-width="1"/><text x="1282" y="556" font-size="11" font-weight="650" fill="#25282B" text-anchor="start" letter-spacing="0.5">REVIEW</text><text x="1158" y="591" font-size="14" font-weight="500" fill="#25282B" text-anchor="start" letter-spacing="0">1 job</text><text x="1538" y="591" font-size="12" font-weight="500" fill="#6B7075" text-anchor="end" letter-spacing="0">44 days</text><line x1="1158" y1="622" x2="1538" y2="622" stroke="#D9DCDE" stroke-width="1"/><text x="1158" y="694" font-size="10" font-weight="700" fill="#6B7075" text-anchor="start" letter-spacing="0.8">COMMITTEE NOTE</text><text x="1158" y="728" font-size="13" font-weight="450" fill="#25282B" text-anchor="start" letter-spacing="0">Two exceptions expire before</text><text x="1158" y="750" font-size="13" font-weight="450" fill="#25282B" text-anchor="start" letter-spacing="0">the next governance review.</text><rect x="1158" y="798" width="194" height="38" rx="4" fill="#111315" stroke="#111315" stroke-width="1"/><text x="1255" y="823" font-size="13" font-weight="650" fill="#FFFFFF" text-anchor="middle" letter-spacing="0">Review exceptions</text></svg>