<svg xmlns="http://www.w3.org/2000/svg" width="1600" height="1000" viewBox="0 0 1600 1000"><style>text{font-family:Inter,-apple-system,BlinkMacSystemFont,"Segoe UI",Arial,sans-serif;font-variant-numeric:tabular-nums}</style><rect x="0" y="0" width="1600" height="1000" rx="0" fill="#17191B" stroke="none" stroke-width="1"/><rect x="0" y="0" width="228" height="1000" rx="0" fill="#111315" stroke="none" stroke-width="1"/><rect x="228" y="0" width="1372" height="64" rx="0" fill="#17191B" stroke="#24272A" stroke-width="1"/><text x="28" y="37" font-size="14" font-weight="700" fill="#FFFFFF" text-anchor="start" letter-spacing="1.1">DBX / PLATFORM</text><circle cx="198" cy="32" r="4" fill="#778087" stroke="none" stroke-width="1"/><rect x="12" y="78" width="204" height="38" rx="4" fill="#2D3033" stroke="none" stroke-width="1"/><rect x="12" y="78" width="3" height="38" rx="0" fill="#FFFFFF" stroke="none" stroke-width="1"/><text x="30" y="104" font-size="13" font-weight="650" fill="#FFFFFF" text-anchor="start" letter-spacing="0">Overview</text><text x="30" y="152" font-size="13" font-weight="450" fill="#AEB3B7" text-anchor="start" letter-spacing="0">Evidence</text><text x="30" y="200" font-size="13" font-weight="450" fill="#AEB3B7" text-anchor="start" letter-spacing="0">Decisions</text><text x="30" y="248" font-size="13" font-weight="450" fill="#AEB3B7" text-anchor="start" letter-spacing="0">Controls</text><text x="30" y="296" font-size="13" font-weight="450" fill="#AEB3B7" text-anchor="start" letter-spacing="0">Costs</text><text x="30" y="344" font-size="13" font-weight="450" fill="#AEB3B7" text-anchor="start" letter-spacing="0">Audit</text><line x1="24" y1="430" x2="204" y2="430" stroke="#34383B" stroke-width="1"/><text x="28" y="464" font-size="10" font-weight="650" fill="#777E83" text-anchor="start" letter-spacing="1">WORKSPACE</text><text x="28" y="490" font-size="13" font-weight="500" fill="#D5D8DA" text-anchor="start" letter-spacing="0">Production</text><circle cx="28" cy="522" r="4" fill="#758A79" stroke="none" stroke-width="1"/><text x="42" y="527" font-size="12" font-weight="450" fill="#AEB3B7" text-anchor="start" letter-spacing="0">Sources current</text><text x="28" y="930" font-size="9" font-weight="650" fill="#6F767B" text-anchor="start" letter-spacing="0.8">READ-ONLY CONTROL PLANE</text><text x="28" y="954" font-size="11" font-weight="400" fill="#8E9498" text-anchor="start" letter-spacing="0">Updated 08:42:16 EDT</text><text x="258" y="39" font-size="11" font-weight="700" fill="#AAB0B4" text-anchor="start" letter-spacing="1">MISSION CONTROL</text><text x="1564" y="39" font-size="12" font-weight="500" fill="#AAB0B4" text-anchor="end" letter-spacing="0">Search  ⌘K</text><text x="272" y="112" font-size="11" font-weight="700" fill="#6B7075" text-anchor="start" letter-spacing="1.2">LIVE OPERATIONS</text><text x="272" y="156" font-size="32" font-weight="620" fill="#111315" text-anchor="start" letter-spacing="0">Incident pulse</text><text x="272" y="185" font-size="14" font-weight="400" fill="#6B7075" text-anchor="start" letter-spacing="0">Evidence source degradation · investigation opened 08:24 EDT.</text><rect x="272" y="214" width="1292" height="86" rx="5" fill="#24272A" stroke="#34383B" stroke-width="1"/><circle cx="302" cy="257" r="6" fill="#B4232C" stroke="none" stroke-width="1"/><text x="324" y="250" font-size="10" font-weight="700" fill="#AEB3B7" text-anchor="start" letter-spacing="0.9">ACTIVE INVESTIGATION</text><text x="324" y="274" font-size="18" font-weight="600" fill="#FFFFFF" text-anchor="start" letter-spacing="0">Security audit source lag</text><rect x="1338" y="244" width="66" height="28" rx="3" fill="#F8EDEE" stroke="#F8EDEE" stroke-width="1"/><circle cx="1350" cy="258" r="3" fill="#B4232C" stroke="none" stroke-width="1"/><text x="1360" y="263" font-size="11" font-weight="650" fill="#B4232C" text-anchor="start" letter-spacing="0.5">SEV 2</text><rect x="272" y="320" width="816" height="568" rx="5" fill="#24272A" stroke="#34383B" stroke-width="1"/><text x="298" y="354" font-size="11" font-weight="700" fill="#AEB3B7" text-anchor="start" letter-spacing="0.9">SIGNAL TIMELINE</text><polyline points="330,610 390,586 450,598 510,557.2 570,571.6 630,432.4 690,504.4 750,535.6 810,547.6 870,566.8 930,578.8 990,588.4" fill="none" stroke="#E3E5E6" stroke-width="2"/><circle cx="330" cy="610" r="3" fill="#8C9398" stroke="none" stroke-width="1"/><circle cx="390" cy="586" r="3" fill="#8C9398" stroke="none" stroke-width="1"/><circle cx="450" cy="598" r="3" fill="#8C9398" stroke="none" stroke-width="1"/><circle cx="510" cy="557.2" r="3" fill="#8C9398" stroke="none" stroke-width="1"/><circle cx="570" cy="571.6" r="3" fill="#8C9398" stroke="none" stroke-width="1"/><circle cx="630" cy="432.4" r="5" fill="#B4232C" stroke="none" stroke-width="1"/><circle cx="690" cy="504.4" r="3" fill="#8C9398" stroke="none" stroke-width="1"/><circle cx="750" cy="535.6" r="3" fill="#8C9398" stroke="none" stroke-width="1"/><circle cx="810" cy="547.6" r="3" fill="#8C9398" stroke="none" stroke-width="1"/><circle cx="870" cy="566.8" r="3" fill="#8C9398" stroke="none" stroke-width="1"/><circle cx="930" cy="578.8" r="3" fill="#8C9398" stroke="none" stroke-width="1"/><circle cx="990" cy="588.4" r="3" fill="#8C9398" stroke="none" stroke-width="1"/><line x1="298" y1="640" x2="1062" y2="640" stroke="#454A4E" stroke-width="1"/><text x="298" y="674" font-size="11" font-weight="450" fill="#92999E" text-anchor="start" letter-spacing="0">08:12</text><text x="1038" y="674" font-size="11" font-weight="450" fill="#92999E" text-anchor="end" letter-spacing="0">08:42</text><text x="298" y="728" font-size="10" font-weight="700" fill="#AEB3B7" text-anchor="start" letter-spacing="0.8">CORRELATED EVIDENCE</text><text x="298" y="762" font-size="13" font-weight="500" fill="#FFFFFF" text-anchor="start" letter-spacing="0">Audit ingest delay</text><text x="760" y="762" font-size="13" font-weight="600" fill="#FFFFFF" text-anchor="end" letter-spacing="0">18m 42s</text><rect x="824" y="743" width="83.6" height="28" rx="3" fill="#F8EDEE" stroke="#F8EDEE" stroke-width="1"/><circle cx="836" cy="757" r="3" fill="#B4232C" stroke="none" stroke-width="1"/><text x="846" y="762" font-size="11" font-weight="650" fill="#B4232C" text-anchor="start" letter-spacing="0.5">DEGRADED</text><line x1="298" y1="784" x2="1062" y2="784" stroke="#3A3F42" stroke-width="1"/><text x="298" y="820" font-size="13" font-weight="500" fill="#FFFFFF" text-anchor="start" letter-spacing="0">Other workspace sources</text><text x="760" y="820" font-size="13" font-weight="600" fill="#FFFFFF" text-anchor="end" letter-spacing="0">17 / 17</text><rect x="824" y="801" width="76.4" height="28" rx="3" fill="#EDF4EE" stroke="#EDF4EE" stroke-width="1"/><circle cx="836" cy="815" r="3" fill="#386641" stroke="none" stroke-width="1"/><text x="846" y="820" font-size="11" font-weight="650" fill="#386641" text-anchor="start" letter-spacing="0.5">CURRENT</text><rect x="1108" y="320" width="456" height="568" rx="5" fill="#24272A" stroke="#34383B" stroke-width="1"/><text x="1134" y="354" font-size="11" font-weight="700" fill="#AEB3B7" text-anchor="start" letter-spacing="0.9">RESPONSE LOG</text><circle cx="1140" cy="402" r="4" fill="#B4232C" stroke="none" stroke-width="1"/><line x1="1140" y1="411" x2="1140" y2="458" stroke="#4A4F52" stroke-width="1"/><text x="1160" y="406" font-size="11" font-weight="600" fill="#9EA4A8" text-anchor="start" letter-spacing="0">08:24</text><text x="1224" y="406" font-size="13" font-weight="500" fill="#FFFFFF" text-anchor="start" letter-spacing="0">Threshold crossed</text><circle cx="1140" cy="472" r="4" fill="#899095" stroke="none" stroke-width="1"/><line x1="1140" y1="481" x2="1140" y2="528" stroke="#4A4F52" stroke-width="1"/><text x="1160" y="476" font-size="11" font-weight="600" fill="#9EA4A8" text-anchor="start" letter-spacing="0">08:27</text><text x="1224" y="476" font-size="13" font-weight="500" fill="#FFFFFF" text-anchor="start" letter-spacing="0">Source retry started</text><circle cx="1140" cy="542" r="4" fill="#899095" stroke="none" stroke-width="1"/><line x1="1140" y1="551" x2="1140" y2="598" stroke="#4A4F52" stroke-width="1"/><text x="1160" y="546" font-size="11" font-weight="600" fill="#9EA4A8" text-anchor="start" letter-spacing="0">08:31</text><text x="1224" y="546" font-size="13" font-weight="500" fill="#FFFFFF" text-anchor="start" letter-spacing="0">On-call acknowledged</text><circle cx="1140" cy="612" r="4" fill="#899095" stroke="none" stroke-width="1"/><line x1="1140" y1="621" x2="1140" y2="668" stroke="#4A4F52" stroke-width="1"/><text x="1160" y="616" font-size="11" font-weight="600" fill="#9EA4A8" text-anchor="start" letter-spacing="0">08:38</text><text x="1224" y="616" font-size="13" font-weight="500" fill="#FFFFFF" text-anchor="start" letter-spacing="0">Backlog decreasing</text><rect x="1134" y="706" width="404" height="112" rx="4" fill="#1D1F21" stroke="#414548" stroke-width="1"/><text x="1154" y="738" font-size="10" font-weight="700" fill="#9EA4A8" text-anchor="start" letter-spacing="0.8">EXECUTION STATE</text><text x="1154" y="770" font-size="14" font-weight="500" fill="#FFFFFF" text-anchor="start" letter-spacing="0">No target mutation proposed</text><text x="1154" y="796" font-size="12" font-weight="430" fill="#AEB3B7" text-anchor="start" letter-spacing="0">Monitoring and evidence append only</text></svg>