<svg xmlns="http://www.w3.org/2000/svg" width="1600" height="1000" viewBox="0 0 1600 1000"><style>text{font-family:Inter,-apple-system,BlinkMacSystemFont,"Segoe UI",Arial,sans-serif;font-variant-numeric:tabular-nums}</style><rect x="0" y="0" width="1600" height="1000" rx="0" fill="#F4F5F5" stroke="none" stroke-width="1"/><rect x="0" y="0" width="228" height="1000" rx="0" fill="#111315" stroke="none" stroke-width="1"/><rect x="228" y="0" width="1372" height="64" rx="0" fill="#FFFFFF" stroke="#E8EAEB" stroke-width="1"/><text x="28" y="37" font-size="14" font-weight="700" fill="#FFFFFF" text-anchor="start" letter-spacing="1.1">DBX / PLATFORM</text><circle cx="198" cy="32" r="4" fill="#778087" stroke="none" stroke-width="1"/><text x="30" y="104" font-size="13" font-weight="450" fill="#AEB3B7" text-anchor="start" letter-spacing="0">Overview</text><text x="30" y="152" font-size="13" font-weight="450" fill="#AEB3B7" text-anchor="start" letter-spacing="0">Evidence</text><text x="30" y="200" font-size="13" font-weight="450" fill="#AEB3B7" text-anchor="start" letter-spacing="0">Decisions</text><text x="30" y="248" font-size="13" font-weight="450" fill="#AEB3B7" text-anchor="start" letter-spacing="0">Controls</text><rect x="12" y="270" width="204" height="38" rx="4" fill="#2D3033" stroke="none" stroke-width="1"/><rect x="12" y="270" width="3" height="38" rx="0" fill="#FFFFFF" stroke="none" stroke-width="1"/><text x="30" y="296" font-size="13" font-weight="650" fill="#FFFFFF" text-anchor="start" letter-spacing="0">Costs</text><text x="30" y="344" font-size="13" font-weight="450" fill="#AEB3B7" text-anchor="start" letter-spacing="0">Audit</text><line x1="24" y1="430" x2="204" y2="430" stroke="#34383B" stroke-width="1"/><text x="28" y="464" font-size="10" font-weight="650" fill="#777E83" text-anchor="start" letter-spacing="1">WORKSPACE</text><text x="28" y="490" font-size="13" font-weight="500" fill="#D5D8DA" text-anchor="start" letter-spacing="0">Production</text><circle cx="28" cy="522" r="4" fill="#758A79" stroke="none" stroke-width="1"/><text x="42" y="527" font-size="12" font-weight="450" fill="#AEB3B7" text-anchor="start" letter-spacing="0">Sources current</text><text x="28" y="930" font-size="9" font-weight="650" fill="#6F767B" text-anchor="start" letter-spacing="0.8">READ-ONLY CONTROL PLANE</text><text x="28" y="954" font-size="11" font-weight="400" fill="#8E9498" text-anchor="start" letter-spacing="0">Updated 08:42:16 EDT</text><text x="258" y="39" font-size="11" font-weight="700" fill="#6B7075" text-anchor="start" letter-spacing="1">MISSION CONTROL</text><text x="1564" y="39" font-size="12" font-weight="500" fill="#6B7075" text-anchor="end" letter-spacing="0">Search  ⌘K</text><text x="272" y="112" font-size="11" font-weight="700" fill="#6B7075" text-anchor="start" letter-spacing="1.2">FINANCIAL CONTROL</text><text x="272" y="156" font-size="32" font-weight="620" fill="#111315" text-anchor="start" letter-spacing="0">Cost lens</text><text x="272" y="185" font-size="14" font-weight="400" fill="#6B7075" text-anchor="start" letter-spacing="0">Attributed spend, forecast variance, and evidence-backed opportunities.</text><rect x="272" y="214" width="238" height="104" rx="5" fill="#FFFFFF" stroke="#D9DCDE" stroke-width="1"/><text x="290" y="240" font-size="10" font-weight="650" fill="#6B7075" text-anchor="start" letter-spacing="0.8">MONTH TO DATE</text><text x="290" y="280" font-size="28" font-weight="620" fill="#111315" text-anchor="start" letter-spacing="0">$2.08m</text><text x="492" y="280" font-size="12" font-weight="500" fill="#6B7075" text-anchor="end" letter-spacing="0">+2.1%</text><rect x="526" y="214" width="238" height="104" rx="5" fill="#FFFFFF" stroke="#D9DCDE" stroke-width="1"/><text x="544" y="240" font-size="10" font-weight="650" fill="#6B7075" text-anchor="start" letter-spacing="0.8">FORECAST</text><text x="544" y="280" font-size="28" font-weight="620" fill="#111315" text-anchor="start" letter-spacing="0">$3.19m</text><text x="746" y="280" font-size="12" font-weight="500" fill="#6B7075" text-anchor="end" letter-spacing="0">within budget</text><rect x="780" y="214" width="238" height="104" rx="5" fill="#FFFFFF" stroke="#D9DCDE" stroke-width="1"/><text x="798" y="240" font-size="10" font-weight="650" fill="#6B7075" text-anchor="start" letter-spacing="0.8">AVOIDABLE ESTIMATE</text><text x="798" y="280" font-size="28" font-weight="620" fill="#111315" text-anchor="start" letter-spacing="0">$38.4k</text><text x="1000" y="280" font-size="12" font-weight="500" fill="#6B7075" text-anchor="end" letter-spacing="0">modelled</text><rect x="1034" y="214" width="238" height="104" rx="5" fill="#FFFFFF" stroke="#D9DCDE" stroke-width="1"/><text x="1052" y="240" font-size="10" font-weight="650" fill="#6B7075" text-anchor="start" letter-spacing="0.8">UNATTRIBUTED</text><text x="1052" y="280" font-size="28" font-weight="620" fill="#111315" text-anchor="start" letter-spacing="0">0.7%</text><text x="1254" y="280" font-size="12" font-weight="500" fill="#6B7075" text-anchor="end" letter-spacing="0">-0.2%</text><rect x="272" y="340" width="800" height="548" rx="6" fill="#FFFFFF" stroke="#D9DCDE" stroke-width="1"/><text x="298" y="376" font-size="11" font-weight="700" fill="#6B7075" text-anchor="start" letter-spacing="0.9">DAILY SPEND</text><polyline points="312,559.6 350,546.6 388,551.8 426,536.2 464,541.4 502,512.8 540,520.6 578,502.4 616,489.4 654,494.6 692,481.6 730,471.2 768,476.4 806,463.4 844,450.4 882,460.79999999999995 920,442.59999999999997 958,429.59999999999997 996,437.4" fill="none" stroke="#25282B" stroke-width="2"/><circle cx="312" cy="559.6" r="2.5" fill="#111315" stroke="none" stroke-width="1"/><circle cx="350" cy="546.6" r="2.5" fill="#111315" stroke="none" stroke-width="1"/><circle cx="388" cy="551.8" r="2.5" fill="#111315" stroke="none" stroke-width="1"/><circle cx="426" cy="536.2" r="2.5" fill="#111315" stroke="none" stroke-width="1"/><circle cx="464" cy="541.4" r="2.5" fill="#111315" stroke="none" stroke-width="1"/><circle cx="502" cy="512.8" r="2.5" fill="#111315" stroke="none" stroke-width="1"/><circle cx="540" cy="520.6" r="2.5" fill="#111315" stroke="none" stroke-width="1"/><circle cx="578" cy="502.4" r="2.5" fill="#111315" stroke="none" stroke-width="1"/><circle cx="616" cy="489.4" r="2.5" fill="#111315" stroke="none" stroke-width="1"/><circle cx="654" cy="494.6" r="2.5" fill="#111315" stroke="none" stroke-width="1"/><circle cx="692" cy="481.6" r="2.5" fill="#111315" stroke="none" stroke-width="1"/><circle cx="730" cy="471.2" r="2.5" fill="#111315" stroke="none" stroke-width="1"/><circle cx="768" cy="476.4" r="2.5" fill="#111315" stroke="none" stroke-width="1"/><circle cx="806" cy="463.4" r="2.5" fill="#111315" stroke="none" stroke-width="1"/><circle cx="844" cy="450.4" r="2.5" fill="#111315" stroke="none" stroke-width="1"/><circle cx="882" cy="460.79999999999995" r="2.5" fill="#111315" stroke="none" stroke-width="1"/><circle cx="920" cy="442.59999999999997" r="2.5" fill="#111315" stroke="none" stroke-width="1"/><circle cx="958" cy="429.59999999999997" r="2.5" fill="#111315" stroke="none" stroke-width="1"/><circle cx="996" cy="437.4" r="2.5" fill="#111315" stroke="none" stroke-width="1"/><line x1="298" y1="462" x2="1046" y2="462" stroke="#E8EAEB" stroke-width="1" stroke-dasharray="4 4"/><line x1="298" y1="570" x2="1046" y2="570" stroke="#E8EAEB" stroke-width="1" stroke-dasharray="4 4"/><line x1="298" y1="700" x2="1046" y2="700" stroke="#E8EAEB" stroke-width="1"/><text x="298" y="744" font-size="10" font-weight="600" fill="#6B7075" text-anchor="start" letter-spacing="0">01 JUL</text><text x="1046" y="744" font-size="10" font-weight="600" fill="#6B7075" text-anchor="end" letter-spacing="0">19 JUL</text><rect x="298" y="786" width="748" height="70" rx="4" fill="#FAFAFA" stroke="#D9DCDE" stroke-width="1"/><text x="318" y="814" font-size="10" font-weight="700" fill="#6B7075" text-anchor="start" letter-spacing="0.8">FORECAST NOTE</text><text x="318" y="839" font-size="13" font-weight="450" fill="#25282B" text-anchor="start" letter-spacing="0">Current trajectory remains $126k below the approved monthly budget.</text><rect x="1092" y="214" width="472" height="674" rx="6" fill="#FFFFFF" stroke="#D9DCDE" stroke-width="1"/><text x="1118" y="250" font-size="11" font-weight="700" fill="#6B7075" text-anchor="start" letter-spacing="0.9">VARIANCE DRIVERS</text><text x="1118" y="308" font-size="13" font-weight="550" fill="#25282B" text-anchor="start" letter-spacing="0">Interactive compute</text><text x="1538" y="308" font-size="14" font-weight="650" fill="#111315" text-anchor="end" letter-spacing="0">+$52.6k</text><text x="1538" y="333" font-size="11" font-weight="500" fill="#6B7075" text-anchor="end" letter-spacing="0">8.2%</text><line x1="1118" y1="354" x2="1538" y2="354" stroke="#D9DCDE" stroke-width="1"/><text x="1118" y="390" font-size="13" font-weight="550" fill="#25282B" text-anchor="start" letter-spacing="0">Jobs compute</text><text x="1538" y="390" font-size="14" font-weight="650" fill="#386641" text-anchor="end" letter-spacing="0">-$11.8k</text><text x="1538" y="415" font-size="11" font-weight="500" fill="#6B7075" text-anchor="end" letter-spacing="0">-2.4%</text><line x1="1118" y1="436" x2="1538" y2="436" stroke="#D9DCDE" stroke-width="1"/><text x="1118" y="472" font-size="13" font-weight="550" fill="#25282B" text-anchor="start" letter-spacing="0">SQL warehouse</text><text x="1538" y="472" font-size="14" font-weight="650" fill="#111315" text-anchor="end" letter-spacing="0">+$6.2k</text><text x="1538" y="497" font-size="11" font-weight="500" fill="#6B7075" text-anchor="end" letter-spacing="0">3.1%</text><line x1="1118" y1="518" x2="1538" y2="518" stroke="#D9DCDE" stroke-width="1"/><text x="1118" y="554" font-size="13" font-weight="550" fill="#25282B" text-anchor="start" letter-spacing="0">Model serving</text><text x="1538" y="554" font-size="14" font-weight="650" fill="#386641" text-anchor="end" letter-spacing="0">-$4.2k</text><text x="1538" y="579" font-size="11" font-weight="500" fill="#6B7075" text-anchor="end" letter-spacing="0">-1.8%</text><line x1="1118" y1="600" x2="1538" y2="600" stroke="#D9DCDE" stroke-width="1"/><text x="1118" y="674" font-size="10" font-weight="700" fill="#6B7075" text-anchor="start" letter-spacing="0.8">PROPOSED ACTION</text><text x="1118" y="710" font-size="17" font-weight="600" fill="#111315" text-anchor="start" letter-spacing="0">Draft idle-cluster review</text><text x="1118" y="740" font-size="12" font-weight="450" fill="#6B7075" text-anchor="start" letter-spacing="0">Estimate only · approval required</text><rect x="1118" y="786" width="170" height="38" rx="4" fill="#111315" stroke="#111315" stroke-width="1"/><text x="1203" y="811" font-size="13" font-weight="650" fill="#FFFFFF" text-anchor="middle" letter-spacing="0">Draft proposal</text></svg>