<svg xmlns="http://www.w3.org/2000/svg" width="1600" height="1000" viewBox="0 0 1600 1000">
<rect width="1600" height="1000" fill="#FBF7F8"/>
<style>text{font-family:Inter,Arial,sans-serif}.muted{opacity:.72}</style>
<rect x="0" y="0" width="1600" height="18" rx="0" fill="#F00037" stroke="none" stroke-width="0"/>
<rect x="0" y="18" width="1600" height="6" rx="0" fill="#FFCD67" stroke="none" stroke-width="0"/>
<rect x="80" y="82" width="138" height="10" rx="5" fill="#F00037" stroke="none" stroke-width="0"/>
<text x="80" y="150" font-size="64" font-weight="800" fill="#240B15" text-anchor="start">Calm Zero State</text>
<text x="80" y="198" font-size="26" font-weight="450" fill="#240B15" text-anchor="start">Warm zero-findings screen that keeps red as brand anchor without over-signalling danger.</text>
<rect x="80" y="260" width="250" height="620" rx="34" fill="#FFFFFF" stroke="#E4D7DB" stroke-width="2"/>
<rect x="100" y="300" width="210" height="44" rx="22" fill="#F9EAED" stroke="none" stroke-width="0"/><text x="205" y="329" font-size="18" font-weight="700" fill="#240B15" text-anchor="middle">Decisions</text>
<rect x="100" y="378" width="210" height="44" rx="22" fill="#F9EAED" stroke="none" stroke-width="0"/><text x="205" y="407" font-size="18" font-weight="700" fill="#240B15" text-anchor="middle">Evidence</text>
<rect x="100" y="456" width="210" height="44" rx="22" fill="#F9EAED" stroke="none" stroke-width="0"/><text x="205" y="485" font-size="18" font-weight="700" fill="#240B15" text-anchor="middle">Approvals</text>
<rect x="100" y="534" width="210" height="44" rx="22" fill="#F9EAED" stroke="none" stroke-width="0"/><text x="205" y="563" font-size="18" font-weight="700" fill="#240B15" text-anchor="middle">Audit</text>
<rect x="100" y="612" width="210" height="44" rx="22" fill="#F00037" stroke="none" stroke-width="0"/><text x="205" y="641" font-size="18" font-weight="700" fill="#FFFFFF" text-anchor="middle">Health</text>
<rect x="370" y="260" width="320" height="230" rx="28" fill="#FFFFFF" stroke="#E4D7DB" stroke-width="2"/>
<rect x="370" y="260" width="10" height="230" rx="5" fill="#F00037" stroke="none" stroke-width="0"/>
<text x="404" y="315" font-size="30" font-weight="750" fill="#240B15" text-anchor="start">Priority decision</text>
<text x="404" y="356" font-size="21" font-weight="450" fill="#240B15" text-anchor="start">Human approval required</text>
<rect x="404" y="405" width="210" height="44" rx="22" fill="#F9EAED" stroke="none" stroke-width="0"/><text x="509" y="434" font-size="18" font-weight="700" fill="#240B15" text-anchor="middle">Review plan</text>
<rect x="730" y="330" width="320" height="230" rx="28" fill="#FFFFFF" stroke="#E4D7DB" stroke-width="2"/>
<rect x="730" y="330" width="10" height="230" rx="5" fill="#FFCD67" stroke="none" stroke-width="0"/>
<text x="764" y="385" font-size="30" font-weight="750" fill="#240B15" text-anchor="start">Source freshness</text>
<text x="764" y="426" font-size="21" font-weight="450" fill="#240B15" text-anchor="start">3 sources updated today</text>
<rect x="764" y="475" width="210" height="44" rx="22" fill="#FFF8E1" stroke="none" stroke-width="0"/><text x="869" y="504" font-size="18" font-weight="700" fill="#240B15" text-anchor="middle">Trace evidence</text>
<rect x="1090" y="260" width="320" height="230" rx="28" fill="#FFFFFF" stroke="#E4D7DB" stroke-width="2"/>
<rect x="1090" y="260" width="10" height="230" rx="5" fill="#00AAAD" stroke="none" stroke-width="0"/>
<text x="1124" y="315" font-size="30" font-weight="750" fill="#240B15" text-anchor="start">Approval window</text>
<text x="1124" y="356" font-size="21" font-weight="450" fill="#240B15" text-anchor="start">12:48 remaining</text>
<rect x="1124" y="405" width="210" height="44" rx="22" fill="#FFCD67" stroke="none" stroke-width="0"/><text x="1229" y="434" font-size="18" font-weight="700" fill="#240B15" text-anchor="middle">Expires soon</text>
<rect x="80" y="690" width="1440" height="210" rx="34" fill="#F9EAED" stroke="#E4D7DB" stroke-width="2"/>
<rect x="130" y="730" width="110" height="120" rx="18" fill="#F00037" stroke="none" stroke-width="0"/>
<rect x="320" y="775" width="110" height="75" rx="18" fill="#8B001F" stroke="none" stroke-width="0"/>
<rect x="510" y="690" width="110" height="160" rx="18" fill="#FFCD67" stroke="none" stroke-width="0"/>
<rect x="700" y="755" width="110" height="95" rx="18" fill="#00AAAD" stroke="none" stroke-width="0"/>
<rect x="890" y="715" width="110" height="135" rx="18" fill="#72BF44" stroke="none" stroke-width="0"/>
<rect x="1080" y="790" width="110" height="60" rx="18" fill="#B79AA3" stroke="none" stroke-width="0"/>
<rect x="1270" y="700" width="110" height="150" rx="18" fill="#F00037" stroke="none" stroke-width="0"/>
<text x="112" y="950" font-size="24" font-weight="500" fill="#240B15" text-anchor="start">OTPP palette applied: primary red, deep maroon, warm tints, gold/teal/green accents, rose-grey neutrals.</text>
</svg>